<svg width="130" height="19" viewBox="0 0 130 19" fill="none" xmlns="http://www.w3.org/2000/svg">
<path d="M5.35227 18.2642C4.52273 18.2642 3.77557 18.1165 3.1108 17.821C2.4517 17.5199 1.92898 17.0767 1.54261 16.4915C1.16193 15.9062 0.971591 15.1847 0.971591 14.3267C0.971591 13.5881 1.10795 12.9773 1.38068 12.4943C1.65341 12.0114 2.02557 11.625 2.49716 11.3352C2.96875 11.0455 3.5 10.8267 4.09091 10.679C4.6875 10.5256 5.30398 10.4148 5.94034 10.3466C6.70739 10.267 7.32955 10.196 7.80682 10.1335C8.28409 10.0653 8.63068 9.96307 8.84659 9.8267C9.06818 9.68466 9.17898 9.46591 9.17898 9.17045V9.11932C9.17898 8.47727 8.98864 7.98011 8.60795 7.62784C8.22727 7.27557 7.67898 7.09943 6.96307 7.09943C6.20739 7.09943 5.60795 7.2642 5.16477 7.59375C4.72727 7.9233 4.43182 8.3125 4.27841 8.76136L1.39773 8.35227C1.625 7.55682 2 6.89205 2.52273 6.35795C3.04545 5.81818 3.68466 5.41477 4.44034 5.14773C5.19602 4.875 6.03125 4.73864 6.94602 4.73864C7.5767 4.73864 8.20455 4.8125 8.82955 4.96023C9.45455 5.10795 10.0256 5.35227 10.5426 5.69318C11.0597 6.02841 11.4744 6.4858 11.7869 7.06534C12.1051 7.64489 12.2642 8.36932 12.2642 9.23864V18H9.2983V16.2017H9.19602C9.00852 16.5653 8.74432 16.9062 8.40341 17.2244C8.06818 17.5369 7.64489 17.7898 7.13352 17.983C6.62784 18.1705 6.03409 18.2642 5.35227 18.2642ZM6.15341 15.9972C6.77273 15.9972 7.30966 15.875 7.7642 15.6307C8.21875 15.3807 8.56818 15.0511 8.8125 14.642C9.0625 14.233 9.1875 13.7869 9.1875 13.304V11.7614C9.09091 11.8409 8.92614 11.9148 8.69318 11.983C8.46591 12.0511 8.21023 12.1108 7.92614 12.1619C7.64205 12.2131 7.3608 12.2585 7.08239 12.2983C6.80398 12.3381 6.5625 12.3722 6.35795 12.4006C5.89773 12.4631 5.4858 12.5653 5.12216 12.7074C4.75852 12.8494 4.47159 13.0483 4.26136 13.304C4.05114 13.554 3.94602 13.8778 3.94602 14.2756C3.94602 14.8438 4.15341 15.2727 4.56818 15.5625C4.98295 15.8523 5.51136 15.9972 6.15341 15.9972ZM18.8117 0.545454V18H15.7265V0.545454H18.8117ZM22.3443 18V4.90909H25.2932V7.13352H25.4466C25.7193 6.38352 26.171 5.7983 26.8017 5.37784C27.4324 4.9517 28.1852 4.73864 29.0602 4.73864C29.9466 4.73864 30.6937 4.95455 31.3017 5.38636C31.9153 5.8125 32.3471 6.39489 32.5971 7.13352H32.7335C33.0233 6.40625 33.5119 5.8267 34.1994 5.39489C34.8926 4.95739 35.7136 4.73864 36.6625 4.73864C37.867 4.73864 38.85 5.11932 39.6113 5.88068C40.3727 6.64205 40.7534 7.75284 40.7534 9.21307V18H37.6596V9.69034C37.6596 8.87784 37.4437 8.28409 37.0119 7.90909C36.5801 7.52841 36.0517 7.33807 35.4267 7.33807C34.6824 7.33807 34.1 7.57102 33.6795 8.03693C33.2647 8.49716 33.0574 9.09659 33.0574 9.83523V18H30.0318V9.5625C30.0318 8.88636 29.8272 8.34659 29.4182 7.94318C29.0147 7.53977 28.4863 7.33807 27.8329 7.33807C27.3897 7.33807 26.9863 7.4517 26.6227 7.67898C26.2591 7.90057 25.9693 8.21591 25.7534 8.625C25.5375 9.02841 25.4295 9.5 25.4295 10.0398V18H22.3443ZM48.0104 18.2642C47.1809 18.2642 46.4337 18.1165 45.7689 17.821C45.1098 17.5199 44.5871 17.0767 44.2007 16.4915C43.8201 15.9062 43.6297 15.1847 43.6297 14.3267C43.6297 13.5881 43.7661 12.9773 44.0388 12.4943C44.3115 12.0114 44.6837 11.625 45.1553 11.3352C45.6269 11.0455 46.1581 10.8267 46.749 10.679C47.3456 10.5256 47.9621 10.4148 48.5985 10.3466C49.3655 10.267 49.9877 10.196 50.4649 10.1335C50.9422 10.0653 51.2888 9.96307 51.5047 9.8267C51.7263 9.68466 51.8371 9.46591 51.8371 9.17045V9.11932C51.8371 8.47727 51.6468 7.98011 51.2661 7.62784C50.8854 7.27557 50.3371 7.09943 49.6212 7.09943C48.8655 7.09943 48.2661 7.2642 47.8229 7.59375C47.3854 7.9233 47.0899 8.3125 46.9365 8.76136L44.0559 8.35227C44.2831 7.55682 44.6581 6.89205 45.1809 6.35795C45.7036 5.81818 46.3428 5.41477 47.0985 5.14773C47.8541 4.875 48.6894 4.73864 49.6041 4.73864C50.2348 4.73864 50.8627 4.8125 51.4877 4.96023C52.1127 5.10795 52.6837 5.35227 53.2007 5.69318C53.7178 6.02841 54.1326 6.4858 54.4451 7.06534C54.7632 7.64489 54.9223 8.36932 54.9223 9.23864V18H51.9564V16.2017H51.8541C51.6666 16.5653 51.4024 16.9062 51.0615 17.2244C50.7263 17.5369 50.303 17.7898 49.7916 17.983C49.286 18.1705 48.6922 18.2642 48.0104 18.2642ZM48.8115 15.9972C49.4309 15.9972 49.9678 15.875 50.4223 15.6307C50.8769 15.3807 51.2263 15.0511 51.4706 14.642C51.7206 14.233 51.8456 13.7869 51.8456 13.304V11.7614C51.749 11.8409 51.5843 11.9148 51.3513 11.983C51.124 12.0511 50.8684 12.1108 50.5843 12.1619C50.3002 12.2131 50.0189 12.2585 49.7405 12.2983C49.4621 12.3381 49.2206 12.3722 49.0161 12.4006C48.5559 12.4631 48.1439 12.5653 47.7803 12.7074C47.4166 12.8494 47.1297 13.0483 46.9195 13.304C46.7093 13.554 46.6041 13.8778 46.6041 14.2756C46.6041 14.8438 46.8115 15.2727 47.2263 15.5625C47.6411 15.8523 48.1695 15.9972 48.8115 15.9972ZM58.521 18V0.545454H61.6062V7.07386H61.734C61.8931 6.75568 62.1176 6.41761 62.4073 6.05966C62.6971 5.69602 63.0891 5.38636 63.5835 5.13068C64.0778 4.86932 64.7085 4.73864 65.4755 4.73864C66.4869 4.73864 67.3988 4.99716 68.2113 5.5142C69.0295 6.02557 69.6772 6.78409 70.1545 7.78977C70.6374 8.78977 70.8789 10.017 70.8789 11.4716C70.8789 12.9091 70.6431 14.1307 70.1715 15.1364C69.6999 16.142 69.0579 16.9091 68.2454 17.4375C67.4329 17.9659 66.5124 18.2301 65.484 18.2301C64.734 18.2301 64.1119 18.1051 63.6176 17.8551C63.1232 17.6051 62.7255 17.304 62.4244 16.9517C62.1289 16.5937 61.8988 16.2557 61.734 15.9375H61.5551V18H58.521ZM61.5465 11.4545C61.5465 12.3011 61.6659 13.0426 61.9045 13.679C62.1488 14.3153 62.4982 14.8125 62.9528 15.1705C63.413 15.5227 63.9698 15.6989 64.6232 15.6989C65.3051 15.6989 65.8761 15.517 66.3363 15.1534C66.7965 14.7841 67.1431 14.2812 67.3761 13.6449C67.6147 13.0028 67.734 12.2727 67.734 11.4545C67.734 10.642 67.6176 9.92045 67.3846 9.28977C67.1516 8.65909 66.8051 8.16477 66.3448 7.80682C65.8846 7.44886 65.3107 7.26989 64.6232 7.26989C63.9641 7.26989 63.4045 7.44318 62.9443 7.78977C62.484 8.13636 62.1346 8.62216 61.896 9.24716C61.663 9.87216 61.5465 10.608 61.5465 11.4545ZM79.6572 18.2557C78.3447 18.2557 77.2112 17.983 76.2567 17.4375C75.3078 16.8864 74.5777 16.108 74.0663 15.1023C73.555 14.0909 73.2993 12.9006 73.2993 11.5312C73.2993 10.1847 73.555 9.00284 74.0663 7.9858C74.5834 6.96307 75.305 6.16761 76.2311 5.59943C77.1572 5.02557 78.2453 4.73864 79.4953 4.73864C80.3021 4.73864 81.0635 4.86932 81.7794 5.13068C82.501 5.38636 83.1374 5.78409 83.6885 6.32386C84.2453 6.86364 84.6828 7.55114 85.001 8.38636C85.3192 9.21591 85.4783 10.2045 85.4783 11.3523V12.2983H74.7482V10.2188H82.5209C82.5152 9.62784 82.3874 9.10227 82.1374 8.64205C81.8874 8.17614 81.5379 7.80966 81.0891 7.54261C80.6459 7.27557 80.1288 7.14205 79.5379 7.14205C78.9072 7.14205 78.3533 7.29545 77.876 7.60227C77.3987 7.90341 77.0266 8.30114 76.7595 8.79545C76.4982 9.28409 76.3646 9.82102 76.359 10.4062V12.2216C76.359 12.983 76.4982 13.6364 76.7766 14.1818C77.055 14.7216 77.4442 15.1364 77.9442 15.4261C78.4442 15.7102 79.0294 15.8523 79.6999 15.8523C80.1487 15.8523 80.555 15.7898 80.9186 15.6648C81.2822 15.5341 81.5976 15.3438 81.8646 15.0938C82.1317 14.8438 82.3334 14.5341 82.4697 14.1648L85.3504 14.4886C85.1686 15.25 84.822 15.9148 84.3107 16.483C83.805 17.0455 83.1572 17.483 82.3675 17.7955C81.5777 18.1023 80.6743 18.2557 79.6572 18.2557ZM94.9853 4.90909V7.29545H87.4597V4.90909H94.9853ZM89.3177 1.77273H92.4029V14.0625C92.4029 14.4773 92.4654 14.7955 92.5904 15.017C92.7211 15.233 92.8915 15.3807 93.1018 15.4602C93.312 15.5398 93.5449 15.5795 93.8006 15.5795C93.9938 15.5795 94.1699 15.5653 94.329 15.5369C94.4938 15.5085 94.6188 15.483 94.704 15.4602L95.2239 17.8722C95.0592 17.929 94.8234 17.9915 94.5165 18.0597C94.2154 18.1278 93.8461 18.1676 93.4086 18.179C92.6359 18.2017 91.9398 18.0852 91.3205 17.8295C90.7012 17.5682 90.2097 17.1648 89.8461 16.6193C89.4881 16.0739 89.312 15.392 89.3177 14.5739V1.77273ZM104.462 4.90909V7.29545H96.9369V4.90909H104.462ZM98.7949 1.77273H101.88V14.0625C101.88 14.4773 101.943 14.7955 102.068 15.017C102.198 15.233 102.369 15.3807 102.579 15.4602C102.789 15.5398 103.022 15.5795 103.278 15.5795C103.471 15.5795 103.647 15.5653 103.806 15.5369C103.971 15.5085 104.096 15.483 104.181 15.4602L104.701 17.8722C104.536 17.929 104.301 17.9915 103.994 18.0597C103.693 18.1278 103.323 18.1676 102.886 18.179C102.113 18.2017 101.417 18.0852 100.798 17.8295C100.178 17.5682 99.6869 17.1648 99.3233 16.6193C98.9653 16.0739 98.7892 15.392 98.7949 14.5739V1.77273ZM113.058 18.2557C111.745 18.2557 110.612 17.983 109.657 17.4375C108.708 16.8864 107.978 16.108 107.467 15.1023C106.955 14.0909 106.7 12.9006 106.7 11.5312C106.7 10.1847 106.955 9.00284 107.467 7.9858C107.984 6.96307 108.705 6.16761 109.631 5.59943C110.558 5.02557 111.646 4.73864 112.896 4.73864C113.702 4.73864 114.464 4.86932 115.18 5.13068C115.901 5.38636 116.538 5.78409 117.089 6.32386C117.646 6.86364 118.083 7.55114 118.401 8.38636C118.719 9.21591 118.879 10.2045 118.879 11.3523V12.2983H108.148V10.2188H115.921C115.916 9.62784 115.788 9.10227 115.538 8.64205C115.288 8.17614 114.938 7.80966 114.489 7.54261C114.046 7.27557 113.529 7.14205 112.938 7.14205C112.308 7.14205 111.754 7.29545 111.276 7.60227C110.799 7.90341 110.427 8.30114 110.16 8.79545C109.898 9.28409 109.765 9.82102 109.759 10.4062V12.2216C109.759 12.983 109.898 13.6364 110.177 14.1818C110.455 14.7216 110.844 15.1364 111.344 15.4261C111.844 15.7102 112.43 15.8523 113.1 15.8523C113.549 15.8523 113.955 15.7898 114.319 15.6648C114.683 15.5341 114.998 15.3438 115.265 15.0938C115.532 14.8438 115.734 14.5341 115.87 14.1648L118.751 14.4886C118.569 15.25 118.222 15.9148 117.711 16.483C117.205 17.0455 116.558 17.483 115.768 17.7955C114.978 18.1023 114.075 18.2557 113.058 18.2557ZM121.849 18V4.90909H124.84V7.09091H124.977C125.215 6.33523 125.624 5.75284 126.204 5.34375C126.789 4.92898 127.457 4.72159 128.207 4.72159C128.377 4.72159 128.567 4.73011 128.778 4.74716C128.994 4.75852 129.173 4.77841 129.315 4.80682V7.64489C129.184 7.59943 128.977 7.55966 128.692 7.52557C128.414 7.4858 128.144 7.46591 127.883 7.46591C127.32 7.46591 126.815 7.58807 126.366 7.83239C125.923 8.07102 125.573 8.40341 125.317 8.82955C125.062 9.25568 124.934 9.74716 124.934 10.304V18H121.849Z" fill="#6495ED"/>
</svg>
