<svg width="21" height="18" viewBox="0 0 21 18" fill="none" xmlns="http://www.w3.org/2000/svg">
<path d="M14 0C13.7348 0 13.4804 0.105357 13.2929 0.292893C13.1054 0.48043 13 0.734784 13 1V1.34L6.8 4H1C0.734784 4 0.48043 4.10536 0.292893 4.29289C0.105357 4.48043 0 4.73478 0 5V11C0 11.2652 0.105357 11.5196 0.292893 11.7071C0.48043 11.8946 0.734784 12 1 12H3.15L4 17.16C4.03833 17.3966 4.16039 17.6116 4.34394 17.7658C4.52749 17.92 4.76031 18.0031 5 18H5.16C5.29206 17.9806 5.4189 17.935 5.53304 17.8658C5.64718 17.7966 5.74632 17.7052 5.8246 17.5971C5.90289 17.489 5.95874 17.3663 5.98886 17.2363C6.01899 17.1063 6.02277 16.9715 6 16.84L5.18 12H6.8L13 14.66V15C13 15.2652 13.1054 15.5196 13.2929 15.7071C13.4804 15.8946 13.7348 16 14 16C14.2652 16 14.5196 15.8946 14.7071 15.7071C14.8946 15.5196 15 15.2652 15 15V1C15 0.734784 14.8946 0.48043 14.7071 0.292893C14.5196 0.105357 14.2652 0 14 0ZM6 10H2V6H6V10ZM8 10.34V5.66L13 3.52V12.52L8 10.34ZM16 8C16 7.73478 16.1054 7.48043 16.2929 7.29289C16.4804 7.10536 16.7348 7 17 7H19C19.2652 7 19.5196 7.10536 19.7071 7.29289C19.8946 7.48043 20 7.73478 20 8C20 8.26522 19.8946 8.51957 19.7071 8.70711C19.5196 8.89464 19.2652 9 19 9H17C16.7348 9 16.4804 8.89464 16.2929 8.70711C16.1054 8.51957 16 8.26522 16 8ZM16.11 4.45C15.9914 4.21383 15.9711 3.94031 16.0535 3.68922C16.136 3.43813 16.3145 3.22989 16.55 3.11L18.55 2.11C18.6678 2.0391 18.799 1.99327 18.9354 1.97536C19.0717 1.95745 19.2103 1.96785 19.3424 2.00592C19.4745 2.04399 19.5974 2.1089 19.7033 2.1966C19.8092 2.2843 19.8959 2.3929 19.958 2.51562C20.02 2.63834 20.0561 2.77254 20.064 2.90983C20.0718 3.04712 20.0512 3.18455 20.0036 3.31353C19.9559 3.44252 19.8821 3.56028 19.7869 3.65947C19.6916 3.75866 19.5769 3.83714 19.45 3.89L17.45 4.89C17.3117 4.96404 17.1569 5.00188 17 5C16.8153 4.99944 16.6344 4.94776 16.4773 4.85068C16.3202 4.7536 16.1931 4.61491 16.11 4.45ZM19.89 13.45C19.8069 13.6149 19.6798 13.7536 19.5227 13.8507C19.3656 13.9478 19.1847 13.9994 19 14C18.8431 14.0019 18.6883 13.964 18.55 13.89L16.55 12.89C16.4231 12.8371 16.3084 12.7587 16.2131 12.6595C16.1179 12.5603 16.0441 12.4425 15.9964 12.3135C15.9488 12.1845 15.9282 12.0471 15.936 11.9098C15.9439 11.7725 15.98 11.6383 16.042 11.5156C16.1041 11.3929 16.1908 11.2843 16.2967 11.1966C16.4026 11.1089 16.5255 11.044 16.6576 11.0059C16.7897 10.9679 16.9283 10.9574 17.0646 10.9754C17.201 10.9933 17.3322 11.0391 17.45 11.11L19.45 12.11C19.6855 12.2299 19.864 12.4381 19.9465 12.6892C20.0289 12.9403 20.0086 13.2138 19.89 13.45Z" fill="white"/>
</svg>
