<svg width="512" height="512" viewBox="0 0 512 512" fill="none" xmlns="http://www.w3.org/2000/svg">
<g clip-path="url(#clip0_614_1364)">
<path d="M398.229 372.371L281.86 256.001L398.229 139.632C401.659 136.203 403.585 131.552 403.585 126.702C403.585 121.852 401.659 117.201 398.229 113.772C394.8 110.343 390.149 108.416 385.3 108.416C380.45 108.416 375.799 110.343 372.37 113.772L256 230.141L139.63 113.772C136.201 110.343 131.55 108.416 126.7 108.416C121.851 108.416 117.2 110.343 113.771 113.772C110.341 117.201 108.415 121.852 108.415 126.702C108.415 131.552 110.341 136.203 113.771 139.632L230.14 256.001L113.771 372.371C110.341 375.8 108.415 380.451 108.415 385.301C108.415 390.151 110.341 394.802 113.771 398.231C117.2 401.66 121.851 403.587 126.7 403.587C131.55 403.587 136.201 401.66 139.63 398.231L256 281.861L372.37 398.231C375.799 401.66 380.45 403.587 385.3 403.587C390.149 403.587 394.8 401.66 398.229 398.231C401.659 394.802 403.585 390.151 403.585 385.301C403.585 380.451 401.659 375.8 398.229 372.371Z" fill="#212121"/>
</g>
<defs>
<clipPath id="clip0_614_1364">
<rect width="512" height="512" fill="white"/>
</clipPath>
</defs>
</svg>
