<svg width="50" height="51" viewBox="0 0 50 51" fill="none" xmlns="http://www.w3.org/2000/svg">
<path d="M38.3561 35.7408H37.4624V32.1659H38.3561C40.4893 32.2512 42.5691 31.4856 44.1379 30.0376C45.7066 28.5895 46.6359 26.5775 46.7212 24.4442C46.8065 22.311 46.041 20.2312 44.5929 18.6625C43.1448 17.0937 41.1328 16.1644 38.9995 16.0791H37.4624L37.2836 14.6134C36.8871 11.6042 35.4102 8.8417 33.128 6.84057C30.8459 4.83944 27.9141 3.73611 24.8789 3.73611C21.8436 3.73611 18.9119 4.83944 16.6298 6.84057C14.3476 8.8417 12.8707 11.6042 12.4742 14.6134L12.4384 16.0791H10.9012C8.76798 16.1644 6.756 17.0937 5.30791 18.6625C3.85981 20.2312 3.09422 22.311 3.17955 24.4442C3.26488 26.5775 4.19414 28.5895 5.76291 30.0376C7.33168 31.4856 9.41145 32.2512 11.5447 32.1659H12.4384V35.7408H11.5447C8.67839 35.7226 5.91997 34.6455 3.79976 32.7166C1.67955 30.7877 0.347225 28.1431 0.0589375 25.2913C-0.22935 22.4394 0.54675 19.5817 2.23803 17.2675C3.9293 14.9532 6.41636 13.3459 9.22104 12.7545C9.99269 9.15553 11.9752 5.93004 14.8377 3.61621C17.7002 1.30238 21.2696 0.0401611 24.9504 0.0401611C28.6311 0.0401611 32.2006 1.30238 35.0631 3.61621C37.9256 5.93004 39.9081 9.15553 40.6797 12.7545C43.4844 13.3459 45.9715 14.9532 47.6627 17.2675C49.354 19.5817 50.1301 22.4394 49.8418 25.2913C49.5535 28.1431 48.2212 30.7877 46.101 32.7166C43.9808 34.6455 41.2224 35.7226 38.3561 35.7408Z" fill="white"/>
<path d="M26.7378 43.1943V21.4414H23.163V43.1943L18.5335 38.5828L16.0133 41.103L24.9504 50.0402L33.8875 41.103L31.3672 38.5828L26.7378 43.1943Z" fill="white"/>
</svg>
