<svg width="50" height="50" viewBox="0 0 50 50" fill="none" xmlns="http://www.w3.org/2000/svg">
<path d="M49.8001 11.5496C49.5464 10.9389 49.0611 10.4536 48.4504 10.1999C48.15 10.0719 47.8273 10.0039 47.5007 10H35.0043C34.3415 10 33.7058 10.2633 33.2371 10.732C32.7684 11.2007 32.5051 11.8364 32.5051 12.4993C32.5051 13.1621 32.7684 13.7978 33.2371 14.2665C33.7058 14.7352 34.3415 14.9986 35.0043 14.9986H41.4775L27.5065 28.9695L19.2839 20.7219C19.0516 20.4876 18.7751 20.3017 18.4706 20.1748C18.166 20.0479 17.8394 19.9826 17.5094 19.9826C17.1795 19.9826 16.8528 20.0479 16.5483 20.1748C16.2437 20.3017 15.9673 20.4876 15.7349 20.7219L0.739281 35.7175C0.505028 35.9499 0.319096 36.2263 0.192212 36.5309C0.0653267 36.8354 0 37.1621 0 37.492C0 37.822 0.0653267 38.1486 0.192212 38.4532C0.319096 38.7577 0.505028 39.0342 0.739281 39.2665C0.971622 39.5008 1.24804 39.6867 1.5526 39.8136C1.85716 39.9405 2.18383 40.0058 2.51377 40.0058C2.8437 40.0058 3.17037 39.9405 3.47493 39.8136C3.77949 39.6867 4.05591 39.5008 4.28825 39.2665L17.5094 26.0204L25.732 34.268C25.9644 34.5022 26.2408 34.6881 26.5454 34.815C26.8499 34.9419 27.1766 35.0072 27.5065 35.0072C27.8365 35.0072 28.1631 34.9419 28.4677 34.815C28.7722 34.6881 29.0487 34.5022 29.281 34.268L45.0014 18.5225V24.9956C45.0014 25.6585 45.2648 26.2942 45.7335 26.7629C46.2022 27.2316 46.8379 27.4949 47.5007 27.4949C48.1636 27.4949 48.7993 27.2316 49.268 26.7629C49.7367 26.2942 50 25.6585 50 24.9956V12.4993C49.9961 12.1727 49.9281 11.85 49.8001 11.5496Z" fill="white"/>
</svg>
