<svg width="58" height="51" viewBox="0 0 58 51" fill="none" xmlns="http://www.w3.org/2000/svg">
<path d="M36.6608 34.1762C38.081 34.1762 39.443 34.7404 40.4472 35.7446C41.4515 36.7489 42.0156 38.1109 42.0156 39.5311V43.1057L41.9966 43.3628C41.2588 48.4249 36.7131 50.8572 29.0855 50.8572C21.4863 50.8572 16.8669 48.4534 15.8697 43.4508L15.8364 43.101V39.5311C15.8364 38.1109 16.4006 36.7489 17.4048 35.7446C18.409 34.7404 19.771 34.1762 21.1912 34.1762H36.6608ZM36.6608 37.7461H21.1912C20.7178 37.7461 20.2638 37.9342 19.9291 38.2689C19.5943 38.6037 19.4063 39.0577 19.4063 39.5311V42.9106C20.0727 45.7665 23.0952 47.2873 29.0855 47.2873C35.0734 47.2873 37.9626 45.7855 38.4457 42.9653V39.5311C38.4457 39.0577 38.2577 38.6037 37.9229 38.2689C37.5882 37.9342 37.1342 37.7461 36.6608 37.7461ZM39.0264 19.8943L52.1303 19.8966C53.5505 19.8966 54.9126 20.4608 55.9168 21.465C56.921 22.4693 57.4852 23.8313 57.4852 25.2515V28.8261L57.4662 29.0832C56.7284 34.1453 52.1827 36.5776 44.555 36.5776L43.8053 36.5704C43.1026 34.8763 41.8216 33.4865 40.1902 32.6483C41.4159 32.8863 42.8676 33.0077 44.555 33.0077C50.5429 33.0077 53.4322 31.5059 53.9153 28.6857V25.2515C53.9153 24.7781 53.7272 24.3241 53.3925 23.9893C53.0578 23.6546 52.6037 23.4665 52.1303 23.4665H39.6357C39.6357 22.2147 39.4215 21.0104 39.0264 19.8943V19.8943ZM5.72167 19.8966L18.8256 19.8943C18.4895 20.845 18.29 21.8386 18.233 22.8454L18.2163 23.4665H5.72167C5.24827 23.4665 4.79426 23.6546 4.45952 23.9893C4.12478 24.3241 3.93672 24.7781 3.93672 25.2515V28.631C4.6031 31.4869 7.62561 33.0077 13.6159 33.0077C15.0962 33.0077 16.3861 32.9149 17.5 32.734C15.9422 33.5805 14.7217 34.9354 14.0419 36.5728L13.6135 36.5776C6.01678 36.5776 1.39733 34.1739 0.40014 29.1712L0.366821 28.8214V25.2515C0.366821 23.8313 0.930991 22.4693 1.93522 21.465C2.93945 20.4608 4.30147 19.8966 5.72167 19.8966V19.8966ZM28.926 15.1368C31.1352 15.1368 33.2539 16.0144 34.816 17.5765C36.3782 19.1386 37.2558 21.2573 37.2558 23.4665C37.2558 25.6757 36.3782 27.7944 34.816 29.3566C33.2539 30.9187 31.1352 31.7963 28.926 31.7963C26.7168 31.7963 24.5981 30.9187 23.036 29.3566C21.4738 27.7944 20.5962 25.6757 20.5962 23.4665C20.5962 21.2573 21.4738 19.1386 23.036 17.5765C24.5981 16.0144 26.7168 15.1368 28.926 15.1368ZM28.926 18.7067C27.6636 18.7067 26.4529 19.2082 25.5603 20.1008C24.6676 20.9935 24.1661 22.2041 24.1661 23.4665C24.1661 24.7289 24.6676 25.9396 25.5603 26.8323C26.4529 27.7249 27.6636 28.2264 28.926 28.2264C30.1884 28.2264 31.3991 27.7249 32.2917 26.8323C33.1844 25.9396 33.6859 24.7289 33.6859 23.4665C33.6859 22.2041 33.1844 20.9935 32.2917 20.1008C31.3991 19.2082 30.1884 18.7067 28.926 18.7067ZM44.3956 0.857178C46.6048 0.857178 48.7235 1.73478 50.2856 3.29691C51.8477 4.85904 52.7253 6.97775 52.7253 9.18694C52.7253 11.3961 51.8477 13.5148 50.2856 15.077C48.7235 16.6391 46.6048 17.5167 44.3956 17.5167C42.1864 17.5167 40.0677 16.6391 38.5055 15.077C36.9434 13.5148 36.0658 11.3961 36.0658 9.18694C36.0658 6.97775 36.9434 4.85904 38.5055 3.29691C40.0677 1.73478 42.1864 0.857178 44.3956 0.857178V0.857178ZM13.4564 0.857178C15.6656 0.857178 17.7843 1.73478 19.3465 3.29691C20.9086 4.85904 21.7862 6.97775 21.7862 9.18694C21.7862 11.3961 20.9086 13.5148 19.3465 15.077C17.7843 16.6391 15.6656 17.5167 13.4564 17.5167C11.2473 17.5167 9.12855 16.6391 7.56642 15.077C6.00428 13.5148 5.12669 11.3961 5.12669 9.18694C5.12669 6.97775 6.00428 4.85904 7.56642 3.29691C9.12855 1.73478 11.2473 0.857178 13.4564 0.857178V0.857178ZM44.3956 4.42708C43.1332 4.42708 41.9225 4.92856 41.0298 5.82121C40.1372 6.71386 39.6357 7.92455 39.6357 9.18694C39.6357 10.4493 40.1372 11.66 41.0298 12.5527C41.9225 13.4453 43.1332 13.9468 44.3956 13.9468C45.658 13.9468 46.8687 13.4453 47.7613 12.5527C48.6539 11.66 49.1554 10.4493 49.1554 9.18694C49.1554 7.92455 48.6539 6.71386 47.7613 5.82121C46.8687 4.92856 45.658 4.42708 44.3956 4.42708V4.42708ZM13.4564 4.42708C12.1941 4.42708 10.9834 4.92856 10.0907 5.82121C9.19807 6.71386 8.69658 7.92455 8.69658 9.18694C8.69658 10.4493 9.19807 11.66 10.0907 12.5527C10.9834 13.4453 12.1941 13.9468 13.4564 13.9468C14.7188 13.9468 15.9295 13.4453 16.8222 12.5527C17.7148 11.66 18.2163 10.4493 18.2163 9.18694C18.2163 7.92455 17.7148 6.71386 16.8222 5.82121C15.9295 4.92856 14.7188 4.42708 13.4564 4.42708V4.42708Z" fill="white"/>
</svg>
