<svg width="55" height="50" viewBox="0 0 55 50" fill="none" xmlns="http://www.w3.org/2000/svg">
<path fill-rule="evenodd" clip-rule="evenodd" d="M16.3229 7.69231V3.84615C16.3229 2.82609 16.7281 1.84781 17.4494 1.12651C18.1707 0.405218 19.149 0 20.169 0H35.5536C36.5737 0 37.552 0.405218 38.2733 1.12651C38.9946 1.84781 39.3998 2.82609 39.3998 3.84615V7.69231H47.0921C49.1322 7.69231 51.0888 8.50274 52.5314 9.94533C53.974 11.3879 54.7844 13.3445 54.7844 15.3846V42.3077C54.7844 44.3478 53.974 46.3044 52.5314 47.747C51.0888 49.1896 49.1322 50 47.0921 50H8.63057C6.59044 50 4.63388 49.1896 3.19129 47.747C1.7487 46.3044 0.938263 44.3478 0.938263 42.3077V15.3846C0.938263 13.3445 1.7487 11.3879 3.19129 9.94533C4.63388 8.50274 6.59044 7.69231 8.63057 7.69231H16.3229ZM20.169 7.69231V3.84615H35.5536V7.69231H20.169ZM50.9383 19.2308H4.78442V15.3846C4.78442 14.3646 5.18964 13.3863 5.91093 12.665C6.63222 11.9437 7.61051 11.5385 8.63057 11.5385H47.0921C48.1122 11.5385 49.0905 11.9437 49.8118 12.665C50.533 13.3863 50.9383 14.3646 50.9383 15.3846V19.2308ZM4.78442 42.3077V23.0769H50.9383V42.3077C50.9383 43.3278 50.533 44.306 49.8118 45.0273C49.0905 45.7486 48.1122 46.1538 47.0921 46.1538H8.63057C7.61051 46.1538 6.63222 45.7486 5.91093 45.0273C5.18964 44.306 4.78442 43.3278 4.78442 42.3077Z" fill="white"/>
</svg>
